<?xml version="1.0" standalone="no"?>
<!DOCTYPE svg PUBLIC "-//W3C//DTD SVG 20010904//EN"
 "http://www.w3.org/TR/2001/REC-SVG-20010904/DTD/svg10.dtd">
<svg version="1.0" xmlns="http://www.w3.org/2000/svg"
 width="337.000000pt" height="150.000000pt" viewBox="0 0 337.000000 150.000000"
 preserveAspectRatio="xMidYMid meet">

<g transform="translate(0.000000,150.000000) scale(0.100000,-0.100000)"
fill="#000000" stroke="none">
<path d="M730 1318 c-120 -22 -131 -22 -124 -3 4 8 3 15 -1 15 -3 0 -72 -43
-151 -95 -80 -52 -147 -95 -150 -95 -3 0 -3 8 0 18 2 9 7 51 10 92 6 66 -5 34
-94 -275 l-100 -350 2 -229 3 -230 110 -33 c61 -18 111 -33 112 -33 5 0 663
1217 663 1226 0 3 -39 -41 -87 -97 l-88 -103 -5 105 -5 105 -95 -18z"/>
<path d="M1086 1287 c-13 -23 -67 -118 -119 -212 -147 -264 -314 -562 -431
-769 -59 -104 -105 -191 -102 -193 2 -2 188 50 412 116 224 66 410 119 411
117 2 -2 -27 -50 -65 -107 -93 -142 -92 -139 -37 -91 27 24 55 40 64 38 9 -3
108 -23 221 -47 l205 -41 185 92 185 92 -80 -82 -80 -81 75 6 c92 6 449 23
665 30 l160 5 -103 -26 c-57 -14 -102 -27 -100 -29 2 -1 44 1 93 6 50 4 129 8
178 8 l87 1 1 28 c0 24 1 24 8 7 5 -11 7 -23 5 -26 -4 -7 87 -18 95 -12 2 2
-13 42 -33 89 -21 48 -40 93 -43 101 -3 9 36 -6 94 -35 79 -40 99 -47 99 -34
-1 9 10 70 23 135 16 80 27 114 33 105 7 -9 8 -7 4 7 -13 46 -256 793 -267
820 l-12 30 -15 -37 c-8 -21 -19 -38 -24 -38 -4 0 -40 16 -79 36 -39 19 -73
33 -76 31 -2 -3 25 -45 61 -93 36 -49 64 -90 62 -91 -1 -2 -82 33 -179 76 -97
44 -177 77 -177 75 0 -7 81 -166 143 -281 53 -100 69 -133 63 -133 -1 0 -49
51 -106 113 -57 61 -130 141 -164 176 l-61 65 -185 33 c-102 18 -187 32 -190
32 -3 0 42 -18 100 -39 58 -21 101 -39 95 -39 -5 0 -118 10 -250 24 -132 14
-251 25 -265 25 -19 0 -2 -17 78 -75 56 -42 102 -78 102 -80 0 -2 -12 0 -27 5
-23 7 -491 145 -665 195 l-48 14 -24 -42z m872 -606 c9 -5 15 -44 19 -119 l6
-112 -31 0 c-53 0 -185 21 -218 35 -30 12 -87 65 -80 73 3 2 16 -4 30 -14 16
-10 48 -17 80 -18 44 0 60 5 90 27 36 28 66 82 66 118 0 20 16 24 38 10z m906
-35 c-3 -9 -10 -16 -16 -16 -5 0 -6 -5 -2 -12 4 -7 3 -8 -4 -4 -7 4 -12 2 -12
-4 0 -6 -4 -8 -10 -5 -5 3 2 18 18 34 30 30 36 32 26 7z m-784 -83 c0 -19 -7
-47 -15 -63 -15 -29 -52 -57 -62 -46 -3 3 5 47 17 97 l23 92 19 -22 c10 -13
18 -39 18 -58z m727 0 c-9 -21 -13 -23 -15 -9 -5 24 6 49 18 41 6 -3 5 -16 -3
-32z m-57 -13 c0 -5 -5 -10 -11 -10 -5 0 -7 5 -4 10 3 6 8 10 11 10 2 0 4 -4
4 -10z m12 -84 c18 12 0 -45 -40 -126 -20 -41 -44 -78 -53 -83 -25 -16 -89 1
-89 22 0 14 10 20 38 24 66 11 119 85 123 172 1 24 3 25 6 7 3 -13 9 -19 15
-16z m-192 -96 c6 -11 7 -20 2 -20 -4 0 -9 -26 -10 -57 -3 -88 -5 -103 -17
-103 -5 0 -3 -4 5 -10 20 -12 6 -23 -19 -15 -12 3 -21 14 -21 23 0 15 2 15 10
2 6 -9 10 -10 10 -3 0 6 -3 14 -7 16 -5 3 -6 31 -4 62 2 39 6 53 12 44 6 -9 7
-2 3 18 -11 56 14 85 36 43z"/>
<path d="M2532 245 c0 -16 2 -22 5 -12 2 9 2 23 0 30 -3 6 -5 -1 -5 -18z"/>
</g>
</svg>
